<svg xmlns="http://www.w3.org/2000/svg" viewBox="0 0 650 330">
  <title>Disconnector (DS) Symbols - Continuous Knife</title>
  
  <!-- Background -->
  <rect width="650" height="330" fill="#fafafa"/>
  
  <!-- Title -->
  <text x="325" y="28" text-anchor="middle" font-family="Arial" font-size="15" font-weight="bold" fill="#333">DISCONNECTOR (DS)</text>
  
  <!-- ============================================ -->
  <!-- DS CLOSED -->
  <!-- ============================================ -->
  <g transform="translate(110, 55)">
    <text x="100" y="0" text-anchor="middle" font-family="Arial" font-size="14" font-weight="bold" fill="#CC0000">DS CLOSED</text>
    <text x="100" y="14" text-anchor="middle" font-family="Arial" font-size="10" fill="#666">Zero gap - fully continuous</text>
    
    <!-- Conductor -->
    <line x1="100" y1="25" x2="100" y2="45" stroke="#CC0000" stroke-width="3"/>
    
    <!-- 1. Chevron UP -->
    <polyline points="92,57 100,47 108,57" fill="none" stroke="#CC0000" stroke-width="2.5" stroke-linejoin="round"/>
    <polyline points="95,63 100,55 105,63" fill="none" stroke="#CC0000" stroke-width="2.5" stroke-linejoin="round"/>
    
    <!-- 2. Line -->
    <line x1="100" y1="63" x2="100" y2="75" stroke="#CC0000" stroke-width="2.5"/>
    
    <!-- 3. PIVOT circle -->
    <circle cx="100" cy="90" r="6" fill="none" stroke="#CC0000" stroke-width="2.5"/>
    
    <!-- 4. KNIFE - perfectly continuous from pivot bottom to contact top -->
    <!-- Knife starts at bottom of pivot (y=96) and ends at top of contact (y=109) -->
    <line x1="100" y1="96" x2="100" y2="109" stroke="#CC0000" stroke-width="7" stroke-linecap="butt"/>
    
    <!-- 5. CONTACT circle (touching knife - zero gap) -->
    <circle cx="100" cy="115" r="6" fill="none" stroke="#CC0000" stroke-width="2.5"/>
    
    <!-- 6. Chevron DOWN -->
    <polyline points="92,130 100,140 108,130" fill="none" stroke="#CC0000" stroke-width="2.5" stroke-linejoin="round"/>
    <polyline points="95,124 100,132 105,124" fill="none" stroke="#CC0000" stroke-width="2.5" stroke-linejoin="round"/>
    
    <!-- Conductor -->
    <line x1="100" y1="140" x2="100" y2="158" stroke="#CC0000" stroke-width="3"/>
    
    <!-- Labels -->
    <text x="100" y="178" text-anchor="middle" font-family="Arial" font-size="9" fill="#CC0000">PIVOT</text>
    <text x="100" y="190" text-anchor="middle" font-family="Arial" font-size="9" fill="#CC0000">CONTACT</text>
    <text x="100" y="210" text-anchor="middle" font-family="Arial" font-size="12" font-weight="bold" fill="#CC0000">ZERO GAP</text>
  </g>
  
  <!-- ============================================ -->
  <!-- DS OPEN -->
  <!-- ============================================ -->
  <g transform="translate(420, 55)">
    <text x="100" y="0" text-anchor="middle" font-family="Arial" font-size="14" font-weight="bold" fill="#009900">DS OPEN</text>
    <text x="100" y="14" text-anchor="middle" font-family="Arial" font-size="10" fill="#666">35° rotation - visible gap</text>
    
    <!-- Conductor -->
    <line x1="100" y1="25" x2="100" y2="45" stroke="#009900" stroke-width="3"/>
    
    <!-- 1. Chevron UP -->
    <polyline points="92,57 100,47 108,57" fill="none" stroke="#009900" stroke-width="2.5" stroke-linejoin="round"/>
    <polyline points="95,63 100,55 105,63" fill="none" stroke="#009900" stroke-width="2.5" stroke-linejoin="round"/>
    
    <!-- 2. Line -->
    <line x1="100" y1="63" x2="100" y2="75" stroke="#009900" stroke-width="2.5"/>
    
    <!-- 3. PIVOT circle -->
    <circle cx="100" cy="90" r="6" fill="none" stroke="#009900" stroke-width="2.5"/>
    
    <!-- 4. KNIFE - rotated 35° from pivot -->
    <line x1="100" y1="90" x2="125" y2="65" stroke="#009900" stroke-width="7" stroke-linecap="round"/>
    
    <!-- 5. CONTACT circle (FIXED - same position as closed) -->
    <circle cx="100" cy="115" r="6" fill="none" stroke="#009900" stroke-width="2.5"/>
    
    <!-- Gap indicator - dashed line between knife end and contact -->
    <line x1="118" y1="75" x2="106" y2="108" stroke="#009900" stroke-width="1" stroke-dasharray="3,2"/>
    
    <!-- 6. Chevron DOWN -->
    <polyline points="92,130 100,140 108,130" fill="none" stroke="#009900" stroke-width="2.5" stroke-linejoin="round"/>
    <polyline points="95,124 100,132 105,124" fill="none" stroke="#009900" stroke-width="2.5" stroke-linejoin="round"/>
    
    <!-- Conductor -->
    <line x1="100" y1="140" x2="100" y2="158" stroke="#009900" stroke-width="3"/>
    
    <!-- Labels -->
    <text x="100" y="178" text-anchor="middle" font-family="Arial" font-size="9" fill="#009900">PIVOT</text>
    <text x="100" y="190" text-anchor="middle" font-family="Arial" font-size="9" fill="#009900">CONTACT</text>
    <text x="100" y="210" text-anchor="middle" font-family="Arial" font-size="12" font-weight="bold" fill="#009900">VISIBLE GAP</text>
  </g>
  
  <!-- ============================================ -->
  <!-- Legend -->
  <!-- ============================================ -->
  <g transform="translate(20, 245)">
    <rect x="0" y="0" width="610" height="70" fill="#fff" stroke="#ddd" rx="4"/>
    
    <text x="15" y="18" font-family="Arial" font-size="10" font-weight="bold" fill="#333">STRUCTURE:</text>
    
    <!-- Chevron -->
    <g transform="translate(90, 35)">
      <polyline points="-5,-3 0,-8 5,-3" fill="none" stroke="#666" stroke-width="1.5"/>
      <polyline points="-5,2 0,-3 5,2" fill="none" stroke="#666" stroke-width="1.5"/>
      <text x="12" y="3" font-family="Arial" font-size="9" fill="#666">Chevron</text>
    </g>
    
    <!-- Pivot -->
    <g transform="translate(175, 35)">
      <circle cx="0" cy="0" r="4" fill="none" stroke="#666" stroke-width="1.5"/>
      <text x="12" y="3" font-family="Arial" font-size="9" fill="#666">Pivot (rotates)</text>
    </g>
    
    <!-- Knife -->
    <g transform="translate(275, 35)">
      <line x1="0" y1="-6" x2="0" y2="6" stroke="#666" stroke-width="3"/>
      <text x="12" y="3" font-family="Arial" font-size="9" fill="#666">Knife</text>
    </g>
    
    <!-- Contact -->
    <g transform="translate(350, 35)">
      <circle cx="0" cy="0" r="4" fill="none" stroke="#666" stroke-width="1.5"/>
      <text x="12" y="3" font-family="Arial" font-size="9" fill="#666">Contact (fixed)</text>
    </g>
    
    <!-- Note -->
    <text x="15" y="58" font-family="Arial" font-size="9" fill="#666">
      CLOSED: Knife touches contact → zero gap. OPEN: Knife rotates 35° → visible gap. Contact never moves.
    </text>
  </g>
</svg>
